<?xml version="1.0" encoding="utf-8"?>
<!-- Generator: Adobe Illustrator 26.0.2, SVG Export Plug-In . SVG Version: 6.00 Build 0)  -->
<svg version="1.1" id="Layer_1" xmlns="http://www.w3.org/2000/svg" xmlns:xlink="http://www.w3.org/1999/xlink" x="0px" y="0px"
	 viewBox="0 0 512 110.2" style="enable-background:new 0 0 512 110.2;" xml:space="preserve">
<style type="text/css">
	.st0{fill:#FFFFFF;}
	.st1{fill:#FF0000;}
</style>
<g>
	<g>
		<path d="M123.7,38.6h6.9c3.8,0,6.7-1.2,8.6-3.5c2-2.4,3-5.9,3-10.4c0-4.5-1-8-3-10.6c-2-2.6-4.8-4-8.4-4h-7L123.7,38.6z
			 M112.1,48.7V0h20.1c6.5,0,11.8,2.2,15.8,6.7c4,4.5,6,10.5,6,17.9c0,8.8-2.7,15.3-8.2,19.6c-3.8,3-8.6,4.4-14.4,4.4H112.1z
			 M167.5,49.6c-3.5,0-6.3-0.9-8.4-2.8c-2.1-1.9-3.2-4.5-3.2-7.8c0-3.5,1.1-6.1,3.4-7.7c2.3-1.6,5.4-2.7,9.5-3.3
			c3.3-0.4,5.5-0.9,6.7-1.4c1.2-0.5,1.8-1.4,1.8-2.5c0-2.5-1.5-3.7-4.6-3.7c-3.3,0-5.1,1.5-5.5,4.5h-9.9c0.1-3.5,1.5-6.3,4.1-8.6
			c2.6-2.3,6.4-3.4,11.2-3.4c4.8,0,8.5,1,10.9,2.9c2.9,2.1,4.3,5.4,4.3,9.9v17.6c0,2.8,0.4,4.4,1.2,5v0.5h-10.4
			c-0.4-0.6-0.8-1.9-1.1-3.9h-0.1C175.3,48,172,49.6,167.5,49.6 M170.9,42.5c2,0,3.6-0.6,4.9-1.7c1.3-1.2,1.9-2.7,1.9-4.6v-4.2
			c-1.1,0.5-2.9,1.2-5.5,1.8c-2.2,0.5-3.7,1.1-4.5,1.8c-0.9,0.7-1.3,1.7-1.3,2.9C166.3,41.2,167.8,42.5,170.9,42.5 M193.2,48.7V13.8
			h10.3v4.8h0.2c2.6-3.9,6.1-5.8,10.4-5.8c3.6,0,6.5,1.2,8.6,3.7c2.1,2.4,3.2,5.6,3.2,9.5v22.7h-10.7V28.3c0-1.9-0.5-3.4-1.4-4.5
			c-0.9-1.1-2.2-1.7-3.9-1.7c-1.8,0-3.2,0.7-4.3,2c-1.1,1.4-1.6,3.1-1.6,5.3v19.3L193.2,48.7z M240.7,49.6c-3.5,0-6.3-0.9-8.4-2.8
			c-2.1-1.9-3.2-4.5-3.2-7.8c0-3.5,1.1-6.1,3.4-7.7c2.3-1.6,5.4-2.7,9.5-3.3c3.3-0.4,5.5-0.9,6.7-1.4c1.2-0.5,1.8-1.4,1.8-2.5
			c0-2.5-1.5-3.7-4.6-3.7c-3.3,0-5.1,1.5-5.5,4.5h-9.9c0.1-3.5,1.5-6.3,4.1-8.6c2.6-2.3,6.4-3.4,11.2-3.4c4.8,0,8.5,1,10.9,2.9
			c2.9,2.1,4.3,5.4,4.3,9.9v17.6c0,2.8,0.4,4.4,1.2,5v0.5H252c-0.4-0.6-0.8-1.9-1.1-3.9h-0.1C248.6,48,245.2,49.6,240.7,49.6
			 M244.1,42.5c2,0,3.6-0.6,4.9-1.7c1.3-1.2,1.9-2.7,1.9-4.6v-4.2c-1.1,0.5-2.9,1.2-5.5,1.8c-2.2,0.5-3.7,1.1-4.5,1.8
			c-0.9,0.7-1.3,1.7-1.3,2.9C239.5,41.2,241,42.5,244.1,42.5 M266.4,48.7V13.8h10.3v4.8h0.2c2.6-3.9,6.1-5.8,10.4-5.8
			c3.6,0,6.5,1.2,8.6,3.7c2.1,2.4,3.2,5.6,3.2,9.5v22.7h-10.7V28.3c0-1.9-0.5-3.4-1.4-4.5c-0.9-1.1-2.2-1.7-3.9-1.7
			c-1.8,0-3.2,0.7-4.3,2s-1.6,3.1-1.6,5.3v19.3L266.4,48.7z M316.7,49.1c-3.4,0-6.1-0.7-8-2.1c-1.8-1.5-2.8-4-2.8-7.5V20.8h-4.5
			v-6.9h4.5v-11h10.5v11h6.1v6.9h-6.1v16.3c0,1.3,0.3,2.2,0.9,2.7c0.7,0.5,1.6,0.7,2.8,0.7h1.4c0.6,0,0.9-0.1,1-0.1v8.1
			C321.3,48.9,319.3,49.1,316.7,49.1 M337,49.6c-3.5,0-6.3-0.9-8.4-2.8c-2.1-1.9-3.2-4.5-3.2-7.8c0-3.5,1.1-6.1,3.4-7.7
			c2.3-1.6,5.4-2.7,9.5-3.3c3.3-0.4,5.5-0.9,6.7-1.4c1.2-0.5,1.8-1.4,1.8-2.5c0-2.5-1.5-3.7-4.6-3.7c-3.3,0-5.1,1.5-5.5,4.5H327
			c0.1-3.5,1.5-6.3,4.1-8.6c2.6-2.3,6.4-3.4,11.2-3.4s8.5,1,10.9,2.9c2.9,2.1,4.3,5.4,4.3,9.9v17.6c0,2.8,0.4,4.4,1.2,5v0.5h-10.4
			c-0.4-0.6-0.8-1.9-1.1-3.9H347C344.9,48,341.6,49.6,337,49.6 M340.5,42.5c2,0,3.6-0.6,4.9-1.7c1.3-1.2,1.9-2.7,1.9-4.6v-4.2
			c-1.1,0.5-2.9,1.2-5.5,1.8c-2.2,0.5-3.7,1.1-4.5,1.8c-0.9,0.7-1.3,1.7-1.3,2.9C335.8,41.2,337.4,42.5,340.5,42.5 M362.7,48.7V13.8
			H373v5.4h0.2c2.3-4,5.4-6,9.2-6c1,0,1.7,0.1,2.1,0.3v9.5h-0.3c-3.3-0.5-6,0.1-7.9,1.8c-1.9,1.7-2.9,4.4-2.9,8.1v15.7H362.7z
			 M396.9,49.6c-3.5,0-6.3-0.9-8.4-2.8c-2.1-1.9-3.2-4.5-3.2-7.8c0-3.5,1.1-6.1,3.4-7.7c2.3-1.6,5.4-2.7,9.5-3.3
			c3.3-0.4,5.5-0.9,6.7-1.4c1.2-0.5,1.8-1.4,1.8-2.5c0-2.5-1.5-3.7-4.6-3.7c-3.3,0-5.1,1.5-5.5,4.5h-9.9c0.1-3.5,1.5-6.3,4.1-8.6
			c2.6-2.3,6.4-3.4,11.2-3.4c4.8,0,8.5,1,10.9,2.9c2.9,2.1,4.3,5.4,4.3,9.9v17.6c0,2.8,0.4,4.4,1.2,5v0.5h-10.4
			c-0.4-0.6-0.8-1.9-1.1-3.9h-0.1C404.8,48,401.5,49.6,396.9,49.6 M400.4,42.5c2,0,3.6-0.6,4.9-1.7c1.3-1.2,1.9-2.7,1.9-4.6v-4.2
			c-1.1,0.5-2.9,1.2-5.5,1.8c-2.2,0.5-3.7,1.1-4.5,1.8c-0.9,0.7-1.3,1.7-1.3,2.9C395.7,41.2,397.3,42.5,400.4,42.5"/>
	</g>
	<g>
		<path d="M112.1,109.1V60h11.7v49.1H112.1z M129.6,109.1V74h10.4v4.8h0.2c2.6-3.9,6.1-5.8,10.4-5.8c3.7,0,6.5,1.2,8.6,3.7
			c2.1,2.4,3.2,5.6,3.2,9.6v22.9h-10.8V88.5c0-1.9-0.5-3.4-1.4-4.5c-0.9-1.1-2.2-1.7-3.9-1.7c-1.8,0-3.2,0.7-4.3,2.1
			c-1.1,1.4-1.7,3.2-1.7,5.4v19.4L129.6,109.1z M180.5,110.2c-4.4,0-8-1.7-10.7-5c-2.7-3.3-4.1-7.9-4.1-13.7c0-5.5,1.4-10,4.1-13.4
			c2.8-3.5,6.3-5.2,10.7-5.2c4.1,0,7.2,1.7,9.4,5h0.2V60h10.8v49.1h-10.3v-4.7h-0.1C188.3,108.3,184.9,110.2,180.5,110.2
			 M183.3,101.4c2.2,0,3.9-0.9,5.2-2.7c1.3-1.8,1.9-4.2,1.9-7.1c0-3.1-0.6-5.5-1.8-7.3c-1.2-1.9-2.9-2.8-5.2-2.8
			c-2.1,0-3.8,0.9-5,2.7c-1.2,1.8-1.8,4.3-1.8,7.3c0,3.1,0.6,5.5,1.8,7.3C179.6,100.5,181.2,101.4,183.3,101.4 M217.3,99.4
			c1.2,1.9,3,2.9,5.3,2.9c2.3,0,4.1-1,5.3-2.9c1.3-1.9,1.9-4.5,1.9-7.8s-0.6-5.8-1.9-7.8c-1.2-2-3-3-5.3-3c-2.3,0-4.1,1-5.3,2.9
			s-1.8,4.5-1.8,7.8C215.4,94.9,216.1,97.5,217.3,99.4 M235.7,104.9c-3.3,3.5-7.6,5.3-13,5.3c-5.4,0-9.7-1.8-13.1-5.3
			c-3.3-3.5-5-8-5-13.3c0-5.4,1.7-9.8,5-13.3c3.3-3.5,7.7-5.3,13.1-5.3c5.4,0,9.7,1.8,13,5.3c3.3,3.5,5,8,5,13.3
			S239,101.4,235.7,104.9 M244.3,109.1V74h10.4v4.8h0.2c2.6-3.9,6.1-5.8,10.4-5.8c3.7,0,6.5,1.2,8.6,3.7c2.1,2.4,3.2,5.6,3.2,9.6
			v22.9h-10.8V88.5c0-1.9-0.5-3.4-1.4-4.5c-0.9-1.1-2.2-1.7-3.9-1.7c-1.8,0-3.2,0.7-4.3,2.1s-1.7,3.2-1.7,5.4v19.4L244.3,109.1z
			 M298.5,110.2c-5.5,0-9.8-1.7-13.1-5.2c-3.3-3.5-4.9-8-4.9-13.5c0-5.3,1.6-9.7,4.8-13.2c3.3-3.5,7.4-5.3,12.6-5.3
			c4.6,0,8.5,1.5,11.6,4.4c4.1,3.8,6,9.5,5.9,17.1H291c0.4,2.4,1.2,4.3,2.4,5.7c1.3,1.3,3,2,5.2,2c2.8,0,4.6-1.2,5.6-3.5h10.5
			c-0.8,3.4-2.7,6.2-5.7,8.3C306.1,109.1,302.6,110.2,298.5,110.2 M291.1,87.8h13.3c-0.2-2.1-0.9-3.8-2-5c-1.1-1.2-2.6-1.9-4.4-1.9
			C294.2,80.9,291.9,83.2,291.1,87.8 M333.4,110.2c-4.9,0-8.9-1.1-11.8-3.3c-2.9-2.2-4.4-5.3-4.6-9.2h10.2c0.4,3.5,2.5,5.2,6.2,5.2
			c1.6,0,2.9-0.3,3.8-0.9c1-0.6,1.5-1.5,1.5-2.6c0-0.4,0-0.7-0.1-1c-0.1-0.3-0.2-0.5-0.5-0.8c-0.2-0.2-0.4-0.4-0.7-0.6
			c-0.2-0.2-0.5-0.3-0.9-0.5c-0.4-0.2-0.7-0.3-1.1-0.4c-0.3-0.1-0.7-0.2-1.3-0.3c-0.5-0.1-0.9-0.2-1.3-0.3c-0.3-0.1-0.8-0.2-1.5-0.3
			c-0.7-0.1-1.1-0.2-1.5-0.3c-1.4-0.2-2.6-0.5-3.6-0.7c-1-0.3-2-0.7-3.2-1.2c-1.1-0.5-2.1-1.2-2.8-1.9c-0.7-0.7-1.3-1.7-1.8-2.9
			c-0.5-1.2-0.7-2.7-0.7-4.3c0-3.6,1.4-6.3,4.2-8.3c2.8-2,6.3-3,10.4-3c4.7,0,8.4,1,11,3c2.6,2,4,4.7,4.3,8.2h-9.9
			c-0.4-2.7-2.2-4.1-5.4-4.1c-1.4,0-2.6,0.3-3.4,0.8c-0.8,0.5-1.3,1.3-1.3,2.4c0,0.3,0,0.5,0.1,0.8c0.1,0.2,0.2,0.4,0.4,0.6
			c0.2,0.2,0.4,0.3,0.6,0.5c0.2,0.1,0.5,0.3,0.9,0.4c0.4,0.1,0.7,0.3,0.9,0.3c0.3,0.1,0.7,0.2,1.2,0.3c0.5,0.1,0.9,0.2,1.3,0.3
			c0.4,0,0.8,0.1,1.4,0.3c0.6,0.1,1,0.2,1.4,0.2c1.5,0.3,2.7,0.5,3.7,0.8s2.1,0.6,3.4,1.2c1.3,0.5,2.4,1.2,3.1,2
			c0.7,0.7,1.4,1.8,1.9,3.1c0.6,1.3,0.9,2.8,0.9,4.5c0,3.8-1.4,6.6-4.3,8.6C341.6,109.2,337.9,110.2,333.4,110.2 M352.2,109.1V74
			H363v35.1L352.2,109.1z M352.2,69.1V60H363v9.1H352.2z M378.1,110c-3.5,0-6.3-0.9-8.4-2.8c-2.1-1.9-3.2-4.5-3.2-7.9
			c0-3.6,1.1-6.2,3.4-7.8c2.3-1.6,5.5-2.7,9.5-3.3c3.3-0.4,5.5-0.9,6.7-1.4c1.2-0.5,1.9-1.4,1.9-2.5c0-2.5-1.5-3.8-4.6-3.8
			c-3.3,0-5.1,1.5-5.5,4.5h-9.9c0.1-3.5,1.5-6.4,4.1-8.6c2.6-2.3,6.4-3.4,11.2-3.4c4.8,0,8.5,1,11,2.9c2.9,2.2,4.3,5.5,4.3,10v17.7
			c0,2.8,0.4,4.5,1.2,5v0.5h-10.4c-0.4-0.6-0.8-1.9-1.1-3.9h-0.1C386,108.4,382.7,110,378.1,110 M381.6,102.9c2,0,3.7-0.6,4.9-1.7
			c1.3-1.2,1.9-2.7,1.9-4.6v-4.2c-1.1,0.5-2.9,1.2-5.5,1.9c-2.2,0.5-3.7,1.1-4.6,1.8s-1.3,1.7-1.3,3
			C377,101.6,378.5,102.9,381.6,102.9"/>
	</g>
	<g>
		<path d="M417,87.6c-2.3,0-4-0.5-5.3-1.4c-1.2-1-1.9-2.4-2-4.2h3.3c0.1,1,0.5,1.7,1.1,2.2c0.6,0.4,1.5,0.7,2.7,0.7
			c1,0,1.7-0.2,2.3-0.5c0.6-0.4,0.9-0.9,0.9-1.7c0-0.3,0-0.5-0.1-0.7c-0.1-0.2-0.2-0.4-0.4-0.6c-0.2-0.2-0.4-0.3-0.6-0.4
			c-0.2-0.1-0.4-0.2-0.9-0.3c-0.4-0.1-0.7-0.2-1-0.3c-0.2-0.1-0.6-0.2-1.2-0.3c-0.7-0.2-1.3-0.3-1.8-0.4c-0.5-0.1-1-0.3-1.5-0.6
			c-0.5-0.3-1-0.6-1.3-0.9c-0.3-0.3-0.6-0.8-0.8-1.3c-0.2-0.5-0.3-1.1-0.3-1.8c0-1.6,0.6-2.9,1.8-3.7c1.2-0.9,2.7-1.3,4.7-1.3
			c1.9,0,3.4,0.5,4.6,1.4s1.8,2.2,1.9,3.9h-3.2c-0.1-0.8-0.4-1.4-1-1.9c-0.6-0.4-1.3-0.7-2.2-0.7c-0.9,0-1.7,0.2-2.2,0.5
			c-0.5,0.4-0.8,0.8-0.8,1.4c0,0.6,0.3,1.1,0.8,1.4c0.5,0.3,1.5,0.6,2.9,0.9c0.8,0.2,1.5,0.3,2,0.5c0.5,0.1,1.1,0.4,1.7,0.6
			c0.6,0.3,1.1,0.6,1.4,0.9c0.3,0.3,0.6,0.8,0.8,1.3c0.2,0.5,0.4,1.2,0.4,1.9c0,1.7-0.6,3-1.8,3.9C420.5,87.2,419,87.6,417,87.6
			 M435.5,85.8c-1.2,1.2-2.7,1.8-4.5,1.8s-3.3-0.6-4.5-1.8c-1.2-1.2-1.8-2.8-1.8-4.6s0.6-3.3,1.8-4.6c1.2-1.2,2.7-1.8,4.5-1.8
			s3.3,0.6,4.5,1.8c1.2,1.2,1.8,2.7,1.8,4.6S436.7,84.6,435.5,85.8 M431,85.2c1,0,1.7-0.4,2.2-1.1c0.5-0.7,0.8-1.7,0.8-2.9
			c0-1.2-0.3-2.2-0.8-2.9c-0.5-0.7-1.3-1.1-2.2-1.1c-1,0-1.7,0.4-2.2,1.1c-0.5,0.7-0.8,1.7-0.8,2.9c0,1.2,0.3,2.2,0.8,2.9
			C429.3,84.8,430,85.2,431,85.2 M441.6,87.3l-4.2-12.1h3.2l1.9,6.3l0.5,1.9h0c0.1-0.5,0.3-1.2,0.5-1.9l2-6.3h3.2l-4.2,12.1H441.6z
			 M455.1,87.6c-1.9,0-3.5-0.6-4.6-1.8c-1.1-1.2-1.7-2.8-1.7-4.6c0-1.8,0.6-3.3,1.7-4.5c1.1-1.2,2.5-1.8,4.3-1.8
			c1.9,0,3.3,0.7,4.4,2c1,1.3,1.5,3.1,1.5,5.3h-8.7c0.1,1,0.4,1.7,1,2.2c0.5,0.5,1.2,0.8,2.1,0.8c1.2,0,1.9-0.5,2.3-1.5h3.1
			c-0.2,1.1-0.8,2.1-1.8,2.8C457.8,87.2,456.6,87.6,455.1,87.6 M454.9,77.3c-1.5,0-2.5,0.9-2.8,2.6h5.3c0-0.8-0.3-1.4-0.8-1.9
			C456.2,77.5,455.6,77.3,454.9,77.3 M465.3,75.1v1.9h0.1c0.4-0.7,0.8-1.2,1.2-1.6c0.5-0.3,1-0.5,1.7-0.5c0.3,0,0.6,0,0.7,0.1v2.8
			H469c-1.1-0.1-1.9,0.1-2.6,0.7c-0.7,0.6-1,1.5-1,2.7v5.9h-3.2V75.1H465.3z M475.7,87.6c-1.9,0-3.5-0.6-4.6-1.8
			c-1.1-1.2-1.7-2.8-1.7-4.6c0-1.8,0.6-3.3,1.7-4.5c1.1-1.2,2.5-1.8,4.3-1.8c1.9,0,3.3,0.7,4.4,2c1,1.3,1.5,3.1,1.5,5.3h-8.7
			c0.1,1,0.4,1.7,1,2.2c0.5,0.5,1.2,0.8,2.1,0.8c1.2,0,1.9-0.5,2.3-1.5h3.1c-0.2,1.1-0.8,2.1-1.8,2.8
			C478.4,87.2,477.2,87.6,475.7,87.6 M475.5,77.3c-1.5,0-2.5,0.9-2.8,2.6h5.3c0-0.8-0.3-1.4-0.8-1.9
			C476.8,77.5,476.2,77.3,475.5,77.3 M482.8,87.3V75.1h3.2v12.1H482.8z M482.8,73.2v-2.9h3.2v2.9H482.8z M493.3,91.4
			c-1.6,0-2.9-0.3-3.9-1c-1-0.7-1.5-1.6-1.7-2.8h3.2c0.3,0.9,1.1,1.3,2.4,1.3c1.8,0,2.7-0.8,2.7-2.5v-1.3h-0.1
			c-0.8,0.9-1.9,1.4-3.1,1.4c-1.4,0-2.7-0.5-3.7-1.6c-1-1.1-1.6-2.5-1.6-4.2c0-1.8,0.5-3.2,1.4-4.3c1-1.1,2.2-1.6,3.7-1.6
			c1.4,0,2.6,0.5,3.3,1.6h0v-1.3h3.1v11.2c0,1.6-0.5,2.8-1.4,3.7C496.7,90.9,495.2,91.4,493.3,91.4 M493.3,83.9c1,0,1.7-0.3,2.1-0.9
			c0.5-0.6,0.7-1.4,0.7-2.4c0-0.9-0.2-1.7-0.7-2.3c-0.5-0.6-1.2-0.9-2.1-0.9c-0.8,0-1.5,0.3-2,0.9c-0.5,0.6-0.7,1.4-0.7,2.4
			c0,1,0.2,1.8,0.7,2.4C491.8,83.7,492.4,83.9,493.3,83.9 M504.2,75.1v1.7h0.1c0.8-1.3,2-2,3.6-2c1.2,0,2.2,0.4,3,1.3
			c0.8,0.8,1.1,1.9,1.1,3.3v7.9h-3.2v-7.4c0-0.7-0.2-1.2-0.6-1.6c-0.4-0.4-0.9-0.6-1.5-0.6c-0.7,0-1.3,0.3-1.8,0.8
			c-0.5,0.5-0.7,1.2-0.7,2v6.9h-3.2V75.1H504.2z"/>
		<g>
			<path d="M411.1,109.1V92.2h12v2.9h-8.6v4.1h7.3v2.9h-7.3v7H411.1z M434.7,109.1h-3.1v-1.4h-0.1c-0.4,0.6-0.9,1-1.4,1.3
				c-0.5,0.3-1.2,0.4-2,0.4c-1.3,0-2.3-0.4-3.1-1.2c-0.7-0.8-1.1-1.9-1.1-3.2v-8.1h3.2v7.5c0,1.5,0.7,2.2,2,2.2
				c0.7,0,1.3-0.3,1.8-0.8c0.4-0.5,0.7-1.2,0.7-2v-7h3.2L434.7,109.1z M439.9,96.9v1.7h0.1c0.8-1.3,2-2,3.6-2c1.2,0,2.2,0.4,3,1.3
				c0.8,0.8,1.1,1.9,1.1,3.3v7.9h-3.2v-7.4c0-0.7-0.2-1.2-0.6-1.6c-0.4-0.4-0.9-0.6-1.5-0.6c-0.7,0-1.3,0.3-1.8,0.8
				c-0.5,0.5-0.7,1.2-0.7,2v6.9h-3.2V96.9L439.9,96.9z M454.1,109.4c-1.5,0-2.7-0.6-3.7-1.7c-0.9-1.2-1.4-2.7-1.4-4.7
				c0-1.9,0.5-3.4,1.4-4.6c1-1.2,2.2-1.8,3.7-1.8s2.6,0.6,3.4,1.8h0.1v-6.2h3.2v16.9h-3.1v-1.6h0
				C456.9,108.8,455.7,109.4,454.1,109.4 M454.8,106.7c0.9,0,1.6-0.3,2.1-1c0.5-0.6,0.7-1.5,0.7-2.7c0-2.6-0.9-3.9-2.8-3.9
				c-0.9,0-1.5,0.3-2,1c-0.5,0.7-0.7,1.6-0.7,2.8c0,1.2,0.2,2.1,0.7,2.7C453.3,106.4,454,106.7,454.8,106.7"/>
		</g>
	</g>
	<path d="M92.5,52.1v8.2c0,26.6-21.6,48.1-48.1,48.1H0V3.9h44.3C70.9,3.9,92.5,25.5,92.5,52.1"/>
	<path class="st0" d="M81.3,63.2c-2.7-3.7-8-3.2-8-3.2C52.3,60,44.7,82,44.7,82L26.6,65.9l0.1-0.1c0.1-0.2,10.7-15.5,41.7-15.5
		c3.1,0,6.1,0.3,9,0.9c1.3,0.3,2.6,0.8,3.7,1.6C86.1,56.8,81.3,63.2,81.3,63.2"/>
	<path class="st1" d="M75.8,48.2c-2.4-0.4-4.9-0.6-7.5-0.6c-31.2,0-42.5,14.7-43.7,16.5l-19-16.8c0,0,18.6-10.9,46.4-10.9
		C68.2,36.4,73.9,42.9,75.8,48.2"/>
</g>
</svg>
